<svg xmlns="http://www.w3.org/2000/svg" viewBox="0 0 32 32">
  <!-- Book spine -->
  <rect x="15" y="6" width="2" height="22" rx="1" fill="#1d4020"/>
  <!-- Left page -->
  <path d="M15 8 C10 8 5 10 4 12 L4 26 C5 24 10 22 15 22 Z" fill="#2c5f2e"/>
  <!-- Right page -->
  <path d="M17 8 C22 8 27 10 28 12 L28 26 C27 24 22 22 17 22 Z" fill="#3a7d3c"/>
  <!-- Left page lines -->
  <line x1="7" y1="14" x2="13" y2="13" stroke="#ffffff" stroke-width="1" stroke-opacity="0.5"/>
  <line x1="7" y1="17" x2="13" y2="16" stroke="#ffffff" stroke-width="1" stroke-opacity="0.5"/>
  <line x1="7" y1="20" x2="13" y2="19" stroke="#ffffff" stroke-width="1" stroke-opacity="0.5"/>
  <!-- Right page lines -->
  <line x1="19" y1="13" x2="25" y2="14" stroke="#ffffff" stroke-width="1" stroke-opacity="0.5"/>
  <line x1="19" y1="16" x2="25" y2="17" stroke="#ffffff" stroke-width="1" stroke-opacity="0.5"/>
  <line x1="19" y1="19" x2="25" y2="20" stroke="#ffffff" stroke-width="1" stroke-opacity="0.5"/>
</svg>
